<?xml version="1.0"?>
<COLLADA xmlns="http://www.collada.org/2005/11/COLLADASchema" version="1.4.1">
	<asset>
		<contributor>
			<author>Assimp</author>
			<authoring_tool>Assimp Exporter</authoring_tool>
		</contributor>
		<created>2023-08-05T09:32:11</created>
		<modified>2023-08-05T09:32:11</modified>
		<unit name="meter" meter="0.010000" />
		<up_axis>Y_UP</up_axis>
	</asset>
	<library_effects>
		<effect id="Mirror-fx" name="Mirror">
			<profile_COMMON>
				<technique sid="standard">
					<phong>
						<diffuse>
							<color sid="diffuse">0.800000   0.800000   0.800000   1.000000</color>
						</diffuse>
					</phong>
				</technique>
			</profile_COMMON>
		</effect>
	</library_effects>
	<library_materials>
		<material id="Mirror" name="Mirror">
			<instance_effect url="#Mirror-fx"/>
		</material>
	</library_materials>
	<library_geometries>
		<geometry id="meshId0" name="meshId0_name" >
			<mesh>
				<source id="meshId0-positions" name="meshId0-positions">
					<float_array id="meshId0-positions-array" count="1287"> 
						-0.923879 0.382683 0.058289 -0.923879 0.382683 -0.105279 -0.980785 0.195090 -0.105279 -0.980785 0.195090 0.058289 0.707107 -0.707107 0.058289 0.707107 -0.707107 -0.105279 0.831470 -0.555570 -0.105279 0.831470 -0.555570 0.058289 -1.000000 0.000000 -0.105279 -1.000000 -0.000000 0.058289 0.923879 -0.382683 -0.105279 0.923879 -0.382683 0.058289 -0.980785 -0.195090 -0.105279 -0.980785 -0.195090 0.058289 0.980785 -0.195090 -0.105279 0.980785 -0.195090 0.058289 -0.923879 -0.382683 -0.105279 -0.923879 -0.382683 0.058289 1.000000 0.000000 -0.105279 1.000000 -0.000000 0.058289 -0.831470 -0.555570 -0.105279 -0.831470 -0.555570 0.058289 0.980785 0.195090 -0.105279 0.980785 0.195090 0.058289 -0.707107 -0.707107 -0.105279 -0.707107 -0.707107 0.058289 0.923879 0.382683 -0.105279 0.923879 0.382683 0.058289 -0.555570 -0.831470 -0.105279 -0.555570 -0.831470 0.058289 0.831470 0.555570 -0.105279 0.831470 0.555570 0.058289 -0.382683 -0.923879 -0.105279 -0.382683 -0.923879 0.058289 0.707107 0.707107 -0.105279 0.707107 0.707107 0.058289 -0.195090 -0.980785 -0.105279 -0.195090 -0.980785 0.058289 -0.195090 0.980785 0.058289 -0.195090 0.980785 -0.105279 -0.382683 0.923879 -0.105279 -0.382683 0.923879 0.058289 0.555570 0.831470 -0.105279 0.555570 0.831470 0.058289 0.000000 -1.000000 -0.105279 0.000000 -1.000000 0.058289 0.382683 0.923879 -0.105279 0.382683 0.923879 0.058289 0.195090 -0.980785 -0.105279 0.195090 -0.980785 0.058289 -0.555570 0.831470 0.058289 -0.555570 0.831470 -0.105279 -0.707107 0.707107 -0.105279 -0.707107 0.707107 0.058289 0.195090 0.980785 -0.105279 0.195090 0.980785 0.058289 0.382683 -0.923879 -0.105279 0.382683 -0.923879 0.058289 -0.831470 0.555570 -0.105279 -0.831470 0.555570 0.058289 -0.176667 0.888165 -0.029526 -0.000000 0.905565 -0.029526 -0.000000 0.905565 0.058289 -0.176667 0.888165 0.058289 
						0.555570 -0.831470 -0.105279 0.555570 -0.831470 0.058289 0.836633 -0.346545 -0.029526 0.752950 -0.503105 -0.029526 0.752950 -0.503105 0.058289 0.836633 -0.346545 0.058289 0.000000 1.000000 -0.105279 0.000000 1.000000 0.058289 0.888165 -0.176667 -0.029526 0.888165 -0.176667 0.058289 0.905565 0.000000 -0.029526 0.905565 -0.000000 0.058289 0.888165 0.176667 -0.029526 0.888165 0.176667 0.058289 0.836633 0.346545 -0.029526 0.836633 0.346545 0.058289 0.752950 0.503105 -0.029526 0.752950 0.503105 0.058289 0.640331 0.640331 -0.029526 0.640331 0.640331 0.058289 -0.346545 0.836633 -0.029526 -0.346545 0.836633 0.058289 0.503105 0.752950 -0.029526 0.503105 0.752950 0.058289 -0.000000 0.905565 -0.029526 0.176667 0.888165 -0.029526 0.176667 0.888165 0.058289 -0.000000 0.905565 0.058289 0.346545 0.836633 -0.029526 0.346545 0.836633 0.058289 -0.640331 0.640331 -0.029526 -0.503105 0.752950 -0.029526 -0.503105 0.752950 0.058289 -0.640331 0.640331 0.058289 -0.752950 0.503105 -0.029526 -0.752950 0.503105 0.058289 -0.000000 0.952783 0.105279 -0.185879 0.934475 0.105279 -0.182354 0.916753 0.101702 -0.000000 0.934713 0.101702 -0.836633 0.346545 -0.029526 -0.836633 0.346545 0.058289 -0.888165 0.176667 -0.029526 -0.888165 0.176667 0.058289 -0.905565 0.000000 -0.029526 -0.905565 -0.000000 0.058289 -0.888165 -0.176667 -0.029526 -0.888165 -0.176667 0.058289 -0.836633 -0.346545 -0.029526 -0.836633 -0.346545 0.058289 -0.752950 -0.503105 -0.029526 -0.752950 -0.503105 0.058289 -0.640331 -0.640331 -0.029526 -0.640331 -0.640331 0.058289 -0.503105 -0.752950 -0.029526 -0.503105 -0.752950 0.058289 -0.346545 -0.836633 -0.029526 -0.346545 -0.836633 0.058289 -0.176667 -0.888165 -0.029526 -0.176667 -0.888165 0.058289 -0.000000 -0.905565 -0.029526 -0.000000 -0.905565 0.058289 0.176667 -0.888165 -0.029526 0.176667 -0.888165 0.058289 
						0.346545 -0.836633 -0.029526 0.346545 -0.836633 0.058289 0.503105 -0.752950 -0.029526 0.503105 -0.752950 0.058289 0.640331 -0.640331 -0.029526 0.640331 -0.640331 0.058289 -0.503105 -0.752950 -0.029526 -0.346545 -0.836633 -0.029526 0.000000 0.000000 0.002597 -0.000000 0.905565 -0.029526 -0.176667 0.888165 -0.029526 0.752950 0.503105 -0.029526 0.640331 0.640331 -0.029526 -0.176667 -0.888165 -0.029526 -0.346545 0.836633 -0.029526 0.503105 0.752950 -0.029526 -0.000000 -0.905565 -0.029526 -0.503105 0.752950 -0.029526 0.346545 0.836633 -0.029526 0.176667 -0.888165 -0.029526 -0.640331 0.640331 -0.029526 0.176667 0.888165 -0.029526 0.346545 -0.836633 -0.029526 -0.752950 0.503105 -0.029526 0.503105 -0.752950 -0.029526 -0.836633 0.346545 -0.029526 0.640331 -0.640331 -0.029526 -0.888165 0.176667 -0.029526 0.752950 -0.503105 -0.029526 -0.905565 0.000000 -0.029526 0.836633 -0.346545 -0.029526 -0.888165 -0.176667 -0.029526 0.888165 -0.176667 -0.029526 -0.836633 -0.346545 -0.029526 0.905565 0.000000 -0.029526 -0.752950 -0.503105 -0.029526 0.888165 0.176667 -0.029526 -0.640331 -0.640331 -0.029526 0.836633 0.346545 -0.029526 1.000000 0.000000 -0.105279 0.980785 -0.195090 -0.105279 0.000000 0.000000 -0.105279 -0.923879 -0.382683 -0.105279 -0.980785 -0.195090 -0.105279 0.923879 -0.382683 -0.105279 -1.000000 0.000000 -0.105279 0.831470 -0.555570 -0.105279 -0.980785 0.195090 -0.105279 0.707107 -0.707107 -0.105279 -0.923879 0.382683 -0.105279 0.555570 -0.831470 -0.105279 -0.831470 0.555570 -0.105279 0.382683 -0.923879 -0.105279 0.000000 1.000000 -0.105279 0.195090 0.980785 -0.105279 -0.707107 0.707107 -0.105279 0.195090 -0.980785 -0.105279 0.382683 0.923879 -0.105279 -0.555570 0.831470 -0.105279 0.000000 -1.000000 -0.105279 0.555570 0.831470 -0.105279 -0.382683 0.923879 -0.105279 -0.195090 -0.980785 -0.105279 0.707107 0.707107 -0.105279 
						-0.195090 0.980785 -0.105279 -0.382683 -0.923879 -0.105279 0.831470 0.555570 -0.105279 -0.555570 -0.831470 -0.105279 0.923879 0.382683 -0.105279 -0.707107 -0.707107 -0.105279 0.980785 0.195090 -0.105279 -0.831470 -0.555570 -0.105279 -0.000000 0.970852 0.101702 -0.189404 0.952197 0.101702 -0.000000 0.986170 0.091516 -0.192392 0.967221 0.091516 -0.000000 0.996406 0.076272 -0.194389 0.977260 0.076272 0.000000 1.000000 0.058289 -0.364614 0.880256 0.105279 -0.371529 0.896950 0.101702 -0.377391 0.911102 0.091516 -0.381308 0.920559 0.076272 -0.529338 0.792210 0.105279 -0.539376 0.807234 0.101702 -0.547887 0.819971 0.091516 -0.553573 0.828481 0.076272 -0.673719 0.673719 0.105279 -0.686496 0.686496 0.101702 -0.697328 0.697328 0.091516 -0.704565 0.704565 0.076272 -0.792210 0.529338 0.105279 -0.807234 0.539376 0.101702 -0.819971 0.547887 0.091516 -0.828481 0.553573 0.076272 -0.880256 0.364614 0.105279 -0.896950 0.371529 0.101702 -0.911102 0.377391 0.091516 -0.920559 0.381308 0.076272 -0.934475 0.185879 0.105279 -0.952197 0.189404 0.101702 -0.967221 0.192392 0.091516 -0.977260 0.194389 0.076272 -0.952783 -0.000000 0.105279 -0.970852 -0.000000 0.101702 -0.986170 -0.000000 0.091516 -0.996406 -0.000000 0.076272 -0.934475 -0.185879 0.105279 -0.952197 -0.189404 0.101702 -0.967221 -0.192392 0.091516 -0.977260 -0.194389 0.076272 -0.880256 -0.364614 0.105279 -0.896950 -0.371529 0.101702 -0.911102 -0.377391 0.091516 -0.920559 -0.381308 0.076272 -0.792210 -0.529338 0.105279 -0.807234 -0.539376 0.101702 -0.819971 -0.547887 0.091516 -0.828481 -0.553573 0.076272 -0.673719 -0.673719 0.105279 -0.686496 -0.686496 0.101702 -0.697328 -0.697328 0.091516 -0.704565 -0.704565 0.076272 -0.529338 -0.792210 0.105279 -0.539376 -0.807234 0.101702 -0.547887 -0.819971 0.091516 -0.553573 -0.828481 0.076272 -0.364614 -0.880256 0.105279 
						-0.371529 -0.896950 0.101702 -0.377391 -0.911102 0.091516 -0.381308 -0.920559 0.076272 -0.185879 -0.934475 0.105279 -0.189404 -0.952197 0.101702 -0.192392 -0.967221 0.091516 -0.194389 -0.977260 0.076272 -0.000000 -0.952783 0.105279 -0.000000 -0.970852 0.101702 -0.000000 -0.986170 0.091516 -0.000000 -0.996406 0.076272 0.185879 -0.934475 0.105279 0.189404 -0.952197 0.101702 0.192392 -0.967221 0.091516 0.194389 -0.977260 0.076272 0.364614 -0.880256 0.105279 0.371529 -0.896950 0.101702 0.377391 -0.911102 0.091516 0.381308 -0.920559 0.076272 0.529338 -0.792210 0.105279 0.539376 -0.807234 0.101702 0.547887 -0.819971 0.091516 0.553573 -0.828481 0.076272 0.673719 -0.673719 0.105279 0.686496 -0.686496 0.101702 0.697328 -0.697328 0.091516 0.704565 -0.704565 0.076272 0.792210 -0.529338 0.105279 0.807234 -0.539376 0.101702 0.819971 -0.547887 0.091516 0.828481 -0.553573 0.076272 0.880256 -0.364614 0.105279 0.896950 -0.371529 0.101702 0.911102 -0.377391 0.091516 0.920559 -0.381308 0.076272 0.934475 -0.185879 0.105279 0.952197 -0.189404 0.101702 0.967221 -0.192392 0.091516 0.977260 -0.194389 0.076272 0.952783 -0.000000 0.105279 0.970852 -0.000000 0.101702 0.986170 -0.000000 0.091516 0.996406 -0.000000 0.076272 0.934475 0.185879 0.105279 0.952197 0.189404 0.101702 0.967221 0.192392 0.091516 0.977260 0.194389 0.076272 0.880256 0.364614 0.105279 0.896950 0.371529 0.101702 0.911102 0.377391 0.091516 0.920559 0.381308 0.076272 0.792210 0.529338 0.105279 0.807234 0.539376 0.101702 0.819971 0.547887 0.091516 0.828481 0.553573 0.076272 0.673719 0.673719 0.105279 0.686496 0.686496 0.101702 0.697328 0.697328 0.091516 0.704565 0.704565 0.076272 0.529338 0.792210 0.105279 0.539376 0.807234 0.101702 0.547887 0.819971 0.091516 0.553573 0.828481 0.076272 0.364614 0.880256 0.105279 
						0.371529 0.896950 0.101702 0.377391 0.911102 0.091516 0.381308 0.920559 0.076272 0.185879 0.934475 0.105279 0.189404 0.952197 0.101702 0.192392 0.967221 0.091516 0.194389 0.977260 0.076272 -0.000000 0.952783 0.105279 -0.000000 0.970852 0.101702 -0.000000 0.986170 0.091516 -0.000000 0.996406 0.076272 -0.000000 0.909159 0.076272 -0.177368 0.891690 0.076272 -0.000000 0.919395 0.091516 -0.179365 0.901729 0.091516 -0.357699 0.863562 0.101702 -0.347920 0.839954 0.076272 -0.351837 0.849410 0.091516 -0.519299 0.777186 0.101702 -0.505102 0.755938 0.076272 -0.510788 0.764449 0.091516 -0.660942 0.660942 0.101702 -0.642873 0.642873 0.076272 -0.650110 0.650110 0.091516 -0.777186 0.519299 0.101702 -0.755938 0.505102 0.076272 -0.764449 0.510788 0.091516 -0.863562 0.357699 0.101702 -0.839954 0.347920 0.076272 -0.849410 0.351837 0.091516 -0.916753 0.182354 0.101702 -0.891690 0.177368 0.076272 -0.901729 0.179365 0.091516 -0.934713 -0.000000 0.101702 -0.909159 -0.000000 0.076272 -0.919395 -0.000000 0.091516 -0.916753 -0.182354 0.101702 -0.891690 -0.177368 0.076272 -0.901729 -0.179365 0.091516 -0.863562 -0.357699 0.101702 -0.839954 -0.347920 0.076272 -0.849410 -0.351837 0.091516 -0.777186 -0.519299 0.101702 -0.755938 -0.505102 0.076272 -0.764449 -0.510788 0.091516 -0.660942 -0.660942 0.101702 -0.642873 -0.642873 0.076272 -0.650110 -0.650110 0.091516 -0.519299 -0.777186 0.101702 -0.505102 -0.755938 0.076272 -0.510788 -0.764449 0.091516 -0.357699 -0.863562 0.101702 -0.347920 -0.839954 0.076272 -0.351837 -0.849410 0.091516 -0.182354 -0.916753 0.101702 -0.177368 -0.891690 0.076272 -0.179365 -0.901729 0.091516 -0.000000 -0.934713 0.101702 -0.000000 -0.909159 0.076272 -0.000000 -0.919395 0.091516 0.182354 -0.916753 0.101702 0.177368 -0.891690 0.076272 0.179365 -0.901729 0.091516 0.357699 -0.863562 0.101702 
						0.347920 -0.839954 0.076272 0.351837 -0.849410 0.091516 0.519299 -0.777186 0.101702 0.505102 -0.755938 0.076272 0.510788 -0.764449 0.091516 0.660942 -0.660942 0.101702 0.642873 -0.642873 0.076272 0.650110 -0.650110 0.091516 0.777186 -0.519299 0.101702 0.755938 -0.505102 0.076272 0.764449 -0.510788 0.091516 0.863562 -0.357699 0.101702 0.839954 -0.347920 0.076272 0.849410 -0.351837 0.091516 0.916753 -0.182354 0.101702 0.891690 -0.177368 0.076272 0.901729 -0.179365 0.091516 0.934713 -0.000000 0.101702 0.909159 -0.000000 0.076272 0.919395 -0.000000 0.091516 0.916753 0.182354 0.101702 0.891690 0.177368 0.076272 0.901729 0.179365 0.091516 0.863562 0.357699 0.101702 0.839954 0.347920 0.076272 0.849410 0.351837 0.091516 0.777186 0.519299 0.101702 0.755938 0.505102 0.076272 0.764449 0.510788 0.091516 0.660942 0.660942 0.101702 0.642873 0.642873 0.076272 0.650110 0.650110 0.091516 0.519299 0.777186 0.101702 0.505102 0.755938 0.076272 0.510788 0.764449 0.091516 0.357699 0.863562 0.101702 0.347920 0.839954 0.076272 0.351837 0.849410 0.091516 0.182354 0.916753 0.101702 0.177368 0.891690 0.076272 0.179365 0.901729 0.091516 -0.000000 0.934713 0.101702 -0.000000 0.909159 0.076272 -0.000000 0.919395 0.091516 0.000000 1.000000 -0.105279 
					</float_array>
					<technique_common>
						<accessor count="429" offset="0" source="#meshId0-positions-array" stride="3">
							<param name="X" type="float" />
							<param name="Y" type="float" />
							<param name="Z" type="float" />
						</accessor>
					</technique_common>
				</source>
				<source id="meshId0-normals" name="meshId0-normals">
					<float_array id="meshId0-normals-array" count="1287"> 
						-0.919443 0.380846 0.097883 -0.923880 0.382683 0.000000 -0.980785 0.195090 0.000000 -0.976075 0.194154 0.097883 0.703711 -0.703711 0.097881 0.707107 -0.707107 -0.000000 0.831470 -0.555570 -0.000000 0.827477 -0.552902 0.097881 -1.000000 -0.000000 -0.000000 -0.995198 -0.000000 0.097882 0.923880 -0.382683 -0.000000 0.919443 -0.380846 0.097883 -0.980785 -0.195090 -0.000000 -0.976076 -0.194154 0.097883 0.980785 -0.195090 -0.000000 0.976076 -0.194154 0.097883 -0.923880 -0.382683 -0.000000 -0.919443 -0.380846 0.097883 1.000000 -0.000000 -0.000000 0.995198 -0.000000 0.097882 -0.831470 -0.555570 -0.000000 -0.827477 -0.552902 0.097881 0.980785 0.195090 0.000000 0.976075 0.194154 0.097883 -0.707107 -0.707107 -0.000000 -0.703711 -0.703711 0.097881 0.923880 0.382683 0.000000 0.919443 0.380846 0.097883 -0.555570 -0.831470 -0.000000 -0.552902 -0.827477 0.097882 0.831470 0.555570 0.000000 0.827477 0.552902 0.097881 -0.382683 -0.923880 -0.000000 -0.380846 -0.919443 0.097884 0.707107 0.707107 0.000000 0.703711 0.703711 0.097881 -0.195090 -0.980785 -0.000000 -0.194154 -0.976075 0.097883 -0.194154 0.976075 0.097883 -0.195090 0.980785 0.000000 -0.382683 0.923880 0.000000 -0.380846 0.919443 0.097884 0.555570 0.831470 0.000000 0.552902 0.827477 0.097882 0.000000 -1.000000 -0.000000 0.000000 -0.995198 0.097881 0.382683 0.923880 0.000000 0.380846 0.919443 0.097884 0.195090 -0.980785 -0.000000 0.194154 -0.976075 0.097883 -0.552902 0.827477 0.097882 -0.555570 0.831470 0.000000 -0.707107 0.707107 0.000000 -0.703711 0.703711 0.097881 0.195090 0.980785 0.000000 0.194154 0.976075 0.097883 0.382683 -0.923880 -0.000000 0.380846 -0.919443 0.097884 -0.831470 0.555570 0.000000 -0.827477 0.552902 0.097881 0.195090 -0.980785 -0.000000 0.000000 -1.000000 -0.000000 -0.000000 -0.995079 0.099087 0.194130 -0.975959 0.099086 
						0.555570 -0.831470 -0.000000 0.552902 -0.827477 0.097882 -0.923880 0.382683 0.000000 -0.831470 0.555570 0.000000 -0.827378 0.552836 0.099085 -0.919333 0.380800 0.099086 0.000000 1.000000 0.000000 0.000000 0.995198 0.097881 -0.980785 0.195090 0.000000 -0.975959 0.194130 0.099086 -1.000000 0.000000 0.000000 -0.995079 -0.000000 0.099086 -0.980785 -0.195090 -0.000000 -0.975959 -0.194130 0.099086 -0.923880 -0.382683 -0.000000 -0.919333 -0.380800 0.099085 -0.831469 -0.555570 -0.000000 -0.827378 -0.552836 0.099085 -0.707107 -0.707107 -0.000000 -0.703627 -0.703627 0.099084 0.382683 -0.923880 -0.000000 0.380800 -0.919333 0.099085 -0.555570 -0.831470 -0.000000 -0.552836 -0.827378 0.099085 0.000000 -1.000000 -0.000000 -0.195090 -0.980785 -0.000000 -0.194130 -0.975959 0.099086 -0.000000 -0.995079 0.099087 -0.382683 -0.923880 -0.000000 -0.380800 -0.919333 0.099085 0.707107 -0.707107 -0.000000 0.555570 -0.831470 -0.000000 0.552836 -0.827378 0.099084 0.703627 -0.703627 0.099084 0.831469 -0.555570 -0.000000 0.827378 -0.552836 0.099085 -0.000000 0.012134 0.999926 -0.002367 0.011901 0.999926 0.072330 -0.363626 0.928733 0.000000 -0.370749 0.928733 0.923880 -0.382683 -0.000000 0.919333 -0.380800 0.099085 0.980785 -0.195090 -0.000000 0.975959 -0.194130 0.099086 1.000000 0.000000 0.000000 0.995079 -0.000000 0.099086 0.980785 0.195090 0.000000 0.975959 0.194130 0.099086 0.923880 0.382683 0.000000 0.919333 0.380800 0.099086 0.831470 0.555570 0.000000 0.827378 0.552836 0.099085 0.707107 0.707107 0.000000 0.703627 0.703627 0.099084 0.555570 0.831470 0.000000 0.552836 0.827378 0.099085 0.382683 0.923880 0.000000 0.380800 0.919333 0.099085 0.195090 0.980785 0.000000 0.194130 0.975959 0.099086 0.000000 1.000000 0.000000 0.000000 0.995079 0.099087 -0.195090 0.980785 0.000000 -0.194130 0.975959 0.099086 
						-0.382683 0.923880 0.000000 -0.380800 0.919333 0.099085 -0.555570 0.831470 0.000000 -0.552836 0.827378 0.099084 -0.707107 0.707107 0.000000 -0.703627 0.703627 0.099084 -0.019695 -0.029476 0.999371 -0.013566 -0.032752 0.999371 -0.000000 -0.000000 1.000000 0.000000 0.035451 0.999371 -0.006916 0.034770 0.999371 0.029476 0.019695 0.999371 0.025068 0.025068 0.999371 -0.006916 -0.034770 0.999371 -0.013566 0.032752 0.999371 0.019695 0.029476 0.999371 0.000000 -0.035451 0.999371 -0.019695 0.029476 0.999371 0.013566 0.032752 0.999371 0.006916 -0.034770 0.999371 -0.025068 0.025068 0.999371 0.006916 0.034770 0.999371 0.013566 -0.032752 0.999371 -0.029476 0.019695 0.999371 0.019695 -0.029476 0.999371 -0.032752 0.013566 0.999371 0.025068 -0.025068 0.999371 -0.034770 0.006916 0.999371 0.029476 -0.019696 0.999371 -0.035451 -0.000000 0.999371 0.032752 -0.013567 0.999371 -0.034770 -0.006916 0.999371 0.034770 -0.006916 0.999371 -0.032752 -0.013567 0.999371 0.035451 -0.000000 0.999371 -0.029476 -0.019696 0.999371 0.034770 0.006916 0.999371 -0.025068 -0.025068 0.999371 0.032752 0.013566 0.999371 -0.000000 0.000000 -1.000000 -0.000000 0.000000 -1.000000 0.000000 0.000000 -1.000000 0.000000 0.000000 -1.000000 0.000000 0.000000 -1.000000 -0.000000 0.000000 -1.000000 0.000000 0.000000 -1.000000 -0.000000 0.000000 -1.000000 0.000000 0.000000 -1.000000 0.000000 0.000000 -1.000000 0.000000 0.000000 -1.000000 0.000000 0.000000 -1.000000 0.000000 0.000000 -1.000000 0.000000 0.000000 -1.000000 0.000000 0.000000 -1.000000 -0.000000 0.000000 -1.000000 0.000000 0.000000 -1.000000 -0.000000 0.000000 -1.000000 0.000000 0.000000 -1.000000 -0.000000 0.000000 -1.000000 0.000000 0.000000 -1.000000 0.000000 0.000000 -1.000000 -0.000000 0.000000 -1.000000 0.000000 0.000000 -1.000000 0.000000 0.000000 -1.000000 
						0.000000 0.000000 -1.000000 -0.000000 0.000000 -1.000000 -0.000000 0.000000 -1.000000 -0.000000 0.000000 -1.000000 -0.000000 0.000000 -1.000000 0.000000 0.000000 -1.000000 -0.000000 0.000000 -1.000000 0.000000 0.000000 -1.000000 0.000000 0.391519 0.920170 -0.076381 0.383995 0.920170 0.000000 0.711546 0.702640 -0.138816 0.697873 0.702640 0.000000 0.925038 0.379876 -0.180466 0.907262 0.379878 0.000000 0.995198 0.097881 -0.004644 0.011211 0.999926 -0.149827 0.361714 0.920171 -0.272296 0.657383 0.702640 -0.353996 0.854623 0.379877 -0.006742 0.010090 0.999926 -0.217515 0.325535 0.920171 -0.395314 0.591629 0.702639 -0.513924 0.769141 0.379874 -0.008581 0.008581 0.999926 -0.276844 0.276844 0.920171 -0.503139 0.503138 0.702640 -0.654101 0.654101 0.379875 -0.010090 0.006742 0.999926 -0.325535 0.217515 0.920171 -0.591628 0.395313 0.702640 -0.769141 0.513923 0.379875 -0.011211 0.004644 0.999926 -0.361715 0.149827 0.920171 -0.657383 0.272296 0.702640 -0.854623 0.353996 0.379876 -0.011902 0.002367 0.999926 -0.383995 0.076381 0.920171 -0.697873 0.138816 0.702640 -0.907263 0.180466 0.379877 -0.012135 -0.000000 0.999926 -0.391518 -0.000000 0.920170 -0.711545 -0.000000 0.702641 -0.925037 -0.000000 0.379876 -0.011902 -0.002368 0.999926 -0.383995 -0.076381 0.920171 -0.697873 -0.138816 0.702640 -0.907263 -0.180466 0.379877 -0.011211 -0.004644 0.999926 -0.361715 -0.149827 0.920171 -0.657382 -0.272296 0.702640 -0.854623 -0.353996 0.379876 -0.010090 -0.006742 0.999926 -0.325535 -0.217515 0.920171 -0.591629 -0.395314 0.702640 -0.769141 -0.513924 0.379874 -0.008581 -0.008581 0.999926 -0.276845 -0.276845 0.920171 -0.503139 -0.503139 0.702640 -0.654101 -0.654101 0.379874 -0.006742 -0.010090 0.999926 -0.217515 -0.325535 0.920171 -0.395314 -0.591629 0.702640 -0.513924 -0.769141 0.379875 -0.004644 -0.011211 0.999926 
						-0.149827 -0.361715 0.920171 -0.272296 -0.657382 0.702640 -0.353996 -0.854623 0.379878 -0.002367 -0.011902 0.999926 -0.076381 -0.383995 0.920170 -0.138816 -0.697873 0.702640 -0.180466 -0.907262 0.379878 0.000000 -0.012135 0.999926 -0.000000 -0.391519 0.920170 -0.000000 -0.711546 0.702640 -0.000000 -0.925038 0.379876 0.002367 -0.011902 0.999926 0.076381 -0.383995 0.920170 0.138816 -0.697873 0.702640 0.180466 -0.907262 0.379878 0.004644 -0.011211 0.999926 0.149827 -0.361715 0.920171 0.272296 -0.657383 0.702640 0.353996 -0.854623 0.379877 0.006742 -0.010090 0.999926 0.217515 -0.325535 0.920171 0.395314 -0.591629 0.702639 0.513924 -0.769141 0.379874 0.008581 -0.008581 0.999926 0.276844 -0.276844 0.920171 0.503138 -0.503138 0.702641 0.654101 -0.654100 0.379875 0.010090 -0.006742 0.999926 0.325534 -0.217515 0.920171 0.591628 -0.395313 0.702641 0.769141 -0.513923 0.379875 0.011211 -0.004644 0.999926 0.361715 -0.149827 0.920171 0.657382 -0.272296 0.702640 0.854623 -0.353996 0.379876 0.011902 -0.002368 0.999926 0.383995 -0.076381 0.920171 0.697873 -0.138816 0.702640 0.907263 -0.180466 0.379877 0.012135 -0.000000 0.999926 0.391518 -0.000000 0.920171 0.711545 -0.000000 0.702641 0.925037 -0.000000 0.379876 0.011902 0.002367 0.999926 0.383995 0.076381 0.920171 0.697873 0.138816 0.702640 0.907263 0.180466 0.379877 0.011212 0.004644 0.999926 0.361715 0.149827 0.920171 0.657382 0.272296 0.702640 0.854623 0.353996 0.379876 0.010090 0.006742 0.999926 0.325535 0.217515 0.920171 0.591629 0.395314 0.702640 0.769141 0.513924 0.379875 0.008581 0.008581 0.999926 0.276845 0.276845 0.920171 0.503139 0.503139 0.702640 0.654101 0.654101 0.379874 0.006742 0.010090 0.999926 0.217515 0.325535 0.920171 0.395314 0.591629 0.702640 0.513924 0.769141 0.379875 0.004644 0.011211 0.999926 
						0.149827 0.361714 0.920171 0.272296 0.657382 0.702641 0.353996 0.854623 0.379878 0.002367 0.011901 0.999926 0.076381 0.383995 0.920170 0.138816 0.697873 0.702640 0.180466 0.907262 0.379878 -0.000000 0.012134 0.999926 0.000000 0.391519 0.920170 0.000000 0.711546 0.702640 0.000000 0.925038 0.379876 -0.000000 -0.921431 0.388542 0.179762 -0.903725 0.388543 0.000000 -0.699306 0.714823 0.136428 -0.685868 0.714823 0.141880 -0.342528 0.928733 0.352617 -0.851291 0.388542 0.267612 -0.646073 0.714824 0.205977 -0.308266 0.928733 0.511920 -0.766142 0.388541 0.388513 -0.581450 0.714824 0.262159 -0.262159 0.928733 0.651550 -0.651550 0.388541 0.494483 -0.494483 0.714824 0.308266 -0.205977 0.928733 0.766142 -0.511920 0.388542 0.581451 -0.388513 0.714823 0.342528 -0.141880 0.928733 0.851291 -0.352616 0.388542 0.646074 -0.267612 0.714823 0.363626 -0.072330 0.928733 0.903725 -0.179762 0.388543 0.685868 -0.136428 0.714823 0.370750 -0.000000 0.928733 0.921430 -0.000000 0.388544 0.699305 -0.000000 0.714823 0.363626 0.072330 0.928733 0.903725 0.179762 0.388543 0.685868 0.136428 0.714823 0.342527 0.141879 0.928733 0.851291 0.352616 0.388542 0.646074 0.267612 0.714823 0.308266 0.205977 0.928733 0.766142 0.511920 0.388542 0.581451 0.388513 0.714824 0.262159 0.262159 0.928733 0.651550 0.651550 0.388541 0.494483 0.494483 0.714824 0.205977 0.308266 0.928733 0.511920 0.766142 0.388541 0.388513 0.581451 0.714824 0.141880 0.342528 0.928733 0.352616 0.851291 0.388543 0.267613 0.646073 0.714823 0.072330 0.363626 0.928733 0.179762 0.903725 0.388543 0.136428 0.685868 0.714824 -0.000000 0.370749 0.928733 0.000000 0.921431 0.388543 -0.000000 0.699306 0.714823 -0.072330 0.363626 0.928733 -0.179762 0.903725 0.388543 -0.136428 0.685868 0.714823 -0.141880 0.342528 0.928733 
						-0.352617 0.851291 0.388542 -0.267612 0.646073 0.714824 -0.205977 0.308266 0.928733 -0.511920 0.766142 0.388541 -0.388513 0.581450 0.714824 -0.262159 0.262159 0.928733 -0.651550 0.651550 0.388541 -0.494483 0.494483 0.714824 -0.308266 0.205977 0.928733 -0.766142 0.511920 0.388542 -0.581451 0.388513 0.714824 -0.342528 0.141879 0.928733 -0.851291 0.352616 0.388542 -0.646074 0.267612 0.714823 -0.363626 0.072330 0.928733 -0.903725 0.179762 0.388543 -0.685868 0.136428 0.714823 -0.370750 -0.000000 0.928733 -0.921430 -0.000000 0.388544 -0.699305 -0.000000 0.714823 -0.363626 -0.072330 0.928733 -0.903725 -0.179762 0.388543 -0.685868 -0.136428 0.714823 -0.342528 -0.141880 0.928733 -0.851291 -0.352616 0.388542 -0.646074 -0.267612 0.714823 -0.308266 -0.205977 0.928733 -0.766142 -0.511920 0.388542 -0.581451 -0.388513 0.714824 -0.262159 -0.262159 0.928733 -0.651550 -0.651550 0.388541 -0.494483 -0.494483 0.714824 -0.205977 -0.308266 0.928733 -0.511920 -0.766142 0.388541 -0.388513 -0.581451 0.714824 -0.141880 -0.342528 0.928733 -0.352616 -0.851291 0.388543 -0.267613 -0.646074 0.714823 -0.072330 -0.363626 0.928733 -0.179762 -0.903725 0.388543 -0.136428 -0.685868 0.714823 0.000000 -0.370749 0.928733 -0.000000 -0.921431 0.388542 0.000000 -0.699306 0.714823 0.000000 1.000000 0.000000 
					</float_array>
					<technique_common>
						<accessor count="429" offset="0" source="#meshId0-normals-array" stride="3">
							<param name="X" type="float" />
							<param name="Y" type="float" />
							<param name="Z" type="float" />
						</accessor>
					</technique_common>
				</source>
				<source id="meshId0-tangents" name="meshId0-tangents">
					<float_array id="meshId0-tangents-array" count="1287"> 
						0.335787 0.630894 0.699443 0.271757 0.656079 0.704065 0.138541 0.696491 0.704065 0.206253 0.684280 0.699443 -0.551659 -0.454372 0.699441 -0.502142 -0.502142 0.704064 -0.394530 -0.590456 0.704065 -0.452417 -0.553266 0.699439 0.000000 0.710138 0.704063 0.068793 0.711370 0.699442 -0.271757 -0.656081 0.704064 -0.335787 -0.630895 0.699442 -0.138541 0.696491 0.704064 -0.071311 0.711127 0.699438 -0.138541 -0.696491 0.704064 -0.206254 -0.684284 0.699439 -0.271757 0.656078 0.704066 -0.208677 0.683555 0.699433 0.000000 -0.710137 0.704064 -0.068793 -0.711375 0.699438 -0.394532 0.590458 0.704062 -0.338018 0.629703 0.699441 0.138541 -0.696491 0.704065 0.071311 -0.711126 0.699439 -0.502141 0.502141 0.704065 -0.454371 0.551658 0.699443 0.271758 -0.656081 0.704064 0.208674 -0.683550 0.699439 -0.590456 0.394530 0.704066 -0.553266 0.452417 0.699440 0.394531 -0.590457 0.704064 0.338018 -0.629703 0.699441 -0.656079 0.271757 0.704066 -0.630900 0.335789 0.699436 0.502142 -0.502142 0.704064 0.454372 -0.551659 0.699441 -0.696492 0.138541 0.704063 -0.684281 0.206254 0.699442 0.711119 0.071308 0.699446 0.696491 0.138541 0.704064 0.656081 0.271757 0.704064 0.683543 0.208669 0.699447 0.590457 -0.394531 0.704064 0.553260 -0.452414 0.699446 -0.710136 -0.000000 0.704065 -0.711370 0.068793 0.699443 0.656079 -0.271757 0.704065 0.630894 -0.335788 0.699443 -0.696491 -0.138541 0.704064 -0.711124 -0.071310 0.699441 0.629702 0.338016 0.699443 0.590457 0.394531 0.704064 0.502143 0.502143 0.704063 0.551652 0.454363 0.699452 0.696490 -0.138541 0.704065 0.684283 -0.206254 0.699440 -0.656080 -0.271757 0.704065 -0.683551 -0.208674 0.699438 0.394530 0.590456 0.704065 0.452417 0.553266 0.699439 0.661444 0.131569 -0.738364 0.674401 0.000000 -0.738365 0.680670 -0.072590 -0.728985 0.678022 0.060494 -0.732548 
						-0.590457 -0.394531 0.704064 -0.629703 -0.338017 0.699442 -0.258082 -0.623065 -0.738365 -0.374678 -0.560745 -0.738364 -0.436660 -0.522213 -0.732545 -0.326391 -0.597368 -0.732544 0.710135 -0.000000 0.704065 0.707433 -0.069180 0.703386 -0.131569 -0.661441 -0.738366 -0.203580 -0.649566 -0.732543 0.000000 -0.674401 -0.738365 -0.072944 -0.676801 -0.732543 0.131569 -0.661442 -0.738366 0.060496 -0.678030 -0.732540 0.258082 -0.623066 -0.738365 0.191611 -0.653199 -0.732541 0.374678 -0.560745 -0.738364 0.315362 -0.603266 -0.732541 0.476875 -0.476875 -0.738364 0.426994 -0.530150 -0.732541 0.623064 0.258082 -0.738366 0.653198 0.191610 -0.732542 0.560744 -0.374677 -0.738365 0.522216 -0.436661 -0.732542 0.674401 0.000000 -0.738366 0.661443 -0.131569 -0.738365 0.649569 -0.203580 -0.732540 0.672916 -0.073297 -0.736079 0.623064 -0.258082 -0.738366 0.597371 -0.326392 -0.732541 0.476874 0.476874 -0.738365 0.560742 0.374676 -0.738367 0.603264 0.315361 -0.732543 0.530148 0.426992 -0.732544 0.374677 0.560743 -0.738366 0.436665 0.522222 -0.732535 0.740606 -0.671890 0.008154 0.827397 -0.561550 0.008643 0.812092 -0.519120 -0.266496 0.731067 -0.633680 -0.252965 0.258081 0.623063 -0.738368 0.326393 0.597375 -0.732537 0.131569 0.661443 -0.738365 0.203579 0.649563 -0.732545 0.000000 0.674403 -0.738364 0.072944 0.676799 -0.732545 -0.131570 0.661445 -0.738363 -0.060495 0.678026 -0.732545 -0.258083 0.623067 -0.738364 -0.191607 0.653193 -0.732548 -0.374676 0.560743 -0.738367 -0.315360 0.603264 -0.732543 -0.476873 0.476873 -0.738366 -0.426988 0.530145 -0.732549 -0.560745 0.374678 -0.738364 -0.522213 0.436660 -0.732545 -0.623066 0.258082 -0.738365 -0.597369 0.326392 -0.732542 -0.661445 0.131570 -0.738363 -0.649560 0.203579 -0.732548 -0.674402 0.000000 -0.738364 -0.676801 0.072945 -0.732543 -0.661443 -0.131569 -0.738365 -0.678027 -0.060495 -0.732544 
						-0.623066 -0.258082 -0.738365 -0.653197 -0.191610 -0.732543 -0.560745 -0.374678 -0.738364 -0.603266 -0.315362 -0.732541 -0.476875 -0.476875 -0.738364 -0.530150 -0.426994 -0.732542 0.999806 -0.000000 0.019704 0.999908 -0.000000 0.013574 1.000000 -0.000000 0.000000 1.000000 -0.000000 0.000000 0.999976 -0.000001 0.006920 0.999565 0.000001 -0.029482 0.999686 0.000001 -0.025075 0.999976 0.000000 0.006920 0.999908 -0.000000 0.013574 0.999806 -0.000000 -0.019704 1.000000 0.000000 0.000000 0.999806 0.000000 0.019704 0.999908 0.000000 -0.013574 0.999976 -0.000000 -0.006920 0.999686 -0.000001 0.025075 0.999976 0.000001 -0.006920 0.999908 0.000000 -0.013574 0.999565 -0.000001 0.029482 0.999806 0.000000 -0.019704 0.999463 0.000000 0.032755 0.999686 -0.000000 -0.025075 0.999395 -0.000000 0.034771 0.999565 0.000000 -0.029482 0.999371 -0.000000 0.035451 0.999463 0.000000 -0.032755 0.999395 -0.000000 0.034771 0.999395 0.000000 -0.034771 0.999463 -0.000000 0.032755 0.999371 0.000000 -0.035451 0.999565 -0.000000 0.029482 0.999395 0.000000 -0.034771 0.999686 0.000000 0.025075 0.999463 -0.000000 -0.032755 -1.000000 0.000000 0.000000 -1.000000 -0.000000 0.000000 -1.000000 0.000000 -0.000000 -1.000000 0.000000 -0.000000 -1.000000 0.000000 -0.000000 -1.000000 -0.000000 0.000000 -1.000000 -0.000000 -0.000000 -1.000000 -0.000000 0.000000 -1.000000 -0.000000 -0.000000 -1.000000 -0.000000 -0.000000 -1.000000 0.000000 -0.000000 -1.000000 -0.000000 -0.000000 -1.000000 0.000000 -0.000000 -1.000000 -0.000000 -0.000000 -1.000000 0.000000 0.000000 -1.000000 0.000001 0.000000 -1.000000 0.000000 0.000000 -1.000000 -0.000000 0.000000 -1.000000 -0.000001 -0.000000 -1.000000 0.000001 0.000000 -1.000000 0.000000 0.000000 -1.000000 -0.000001 -0.000000 -1.000000 0.000001 0.000000 -1.000000 0.000000 -0.000000 -1.000000 -0.000000 -0.000000 
						-1.000000 -0.000001 -0.000000 -1.000000 0.000000 0.000000 -1.000000 -0.000000 0.000000 -1.000000 0.000000 0.000000 -1.000000 -0.000000 0.000000 -1.000000 0.000000 0.000000 -1.000000 0.000000 0.000000 -1.000000 0.000000 -0.000000 0.743715 -0.615131 0.261729 0.821120 -0.499298 0.276521 0.740017 -0.472587 0.478578 0.794922 -0.344624 0.499333 0.730231 -0.259531 0.631986 0.753171 -0.120927 0.646615 0.715287 -0.068402 0.695475 0.921051 -0.389345 0.008643 0.902747 -0.329520 0.276522 0.846885 -0.182913 0.499328 0.762300 0.028342 0.646603 0.979312 -0.202170 0.008643 0.949689 -0.147062 0.276520 0.866295 -0.014183 0.499331 0.742118 0.176511 0.646610 0.999937 -0.007226 0.008643 0.960131 0.041031 0.276522 0.852418 0.155100 0.499328 0.693422 0.317896 0.646613 0.982133 0.187988 0.008643 0.933678 0.227553 0.276523 0.805781 0.318406 0.499335 0.618082 0.447077 0.646605 0.926589 0.375977 0.008643 0.871347 0.405324 0.276526 0.728179 0.469491 0.499333 0.518986 0.559066 0.646605 0.835442 0.549511 0.008643 0.775527 0.567531 0.276525 0.622591 0.602538 0.499328 0.399946 0.649573 0.646605 0.712180 0.701944 0.008643 0.649909 0.707920 0.276526 0.493081 0.712419 0.499330 0.265534 0.715121 0.646602 0.561547 0.827400 0.008643 0.499304 0.821115 0.276523 0.344627 0.794919 0.499335 0.120924 0.753174 0.646611 0.389336 0.921055 0.008643 0.329528 0.902743 0.276525 0.182924 0.846879 0.499335 -0.028346 0.762303 0.646599 0.202170 0.979312 0.008643 0.147077 0.949686 0.276525 0.014183 0.866296 0.499331 -0.176515 0.742121 0.646606 0.007232 0.999937 0.008643 -0.041025 0.960131 0.276524 -0.155092 0.852416 0.499333 -0.317903 0.693425 0.646606 -0.187979 0.982135 0.008643 -0.227548 0.933679 0.276524 -0.318413 0.805780 0.499331 -0.447076 0.618082 0.646605 -0.375979 0.926588 0.008643 
						-0.405329 0.871345 0.276524 -0.469491 0.728179 0.499333 -0.559070 0.518987 0.646601 -0.549524 0.835433 0.008643 -0.567535 0.775525 0.276524 -0.602527 0.622596 0.499335 -0.649569 0.399947 0.646608 -0.701945 0.712178 0.008643 -0.707929 0.649901 0.276524 -0.712417 0.493082 0.499332 -0.715113 0.265536 0.646609 -0.827397 0.561550 0.008643 -0.821114 0.499307 0.276524 -0.794922 0.344624 0.499333 -0.753178 0.120923 0.646607 -0.921054 0.389338 0.008643 -0.902746 0.329521 0.276523 -0.846880 0.182922 0.499334 -0.762300 -0.028342 0.646603 -0.979311 0.202175 0.008643 -0.949686 0.147076 0.276524 -0.866294 0.014185 0.499332 -0.742120 -0.176513 0.646607 -0.999936 0.007230 0.008643 -0.960131 -0.041027 0.276523 -0.852416 -0.155088 0.499334 -0.693424 -0.317901 0.646608 -0.982133 -0.187992 0.008643 -0.933679 -0.227547 0.276524 -0.805781 -0.318404 0.499335 -0.618083 -0.447079 0.646602 -0.926588 -0.375980 0.008643 -0.871342 -0.405337 0.276521 -0.728180 -0.469490 0.499334 -0.518986 -0.559063 0.646608 -0.835433 -0.549523 0.008643 -0.775527 -0.567532 0.276524 -0.622595 -0.602530 0.499333 -0.399946 -0.649573 0.646605 -0.712175 -0.701949 0.008643 -0.649906 -0.707924 0.276525 -0.493085 -0.712413 0.499334 -0.265536 -0.715116 0.646606 -0.561546 -0.827400 0.008643 -0.499305 -0.821115 0.276523 -0.344622 -0.794924 0.499331 -0.120921 -0.753180 0.646605 -0.389342 -0.921053 0.008643 -0.329522 -0.902746 0.276524 -0.182922 -0.846880 0.499334 0.028340 -0.762297 0.646607 -0.202167 -0.979313 0.008643 -0.147076 -0.949686 0.276524 -0.014188 -0.866293 0.499334 0.176515 -0.742121 0.646605 -0.007232 -0.999936 0.008643 0.041035 -0.960131 0.276521 0.155090 -0.852416 0.499333 0.317900 -0.693423 0.646610 0.187987 -0.982134 0.008643 0.227550 -0.933679 0.276524 0.318412 -0.805780 0.499332 0.447072 -0.618081 0.646609 0.375979 -0.926588 0.008643 
						0.405334 -0.871344 0.276522 0.469497 -0.728178 0.499329 0.559066 -0.518987 0.646605 0.549525 -0.835432 0.008643 0.567535 -0.775525 0.276523 0.602528 -0.622596 0.499334 0.649570 -0.399947 0.646607 0.661101 -0.750242 0.009104 0.670212 -0.682922 0.290574 0.683658 -0.512788 0.519288 0.699667 -0.271409 0.660911 0.699494 -0.277667 -0.658490 0.726505 -0.144334 -0.671833 0.716565 -0.498603 -0.487780 0.776766 -0.373772 -0.506881 0.897764 -0.350713 -0.266496 0.740700 0.000172 -0.671836 0.834756 -0.215057 -0.506885 0.948934 -0.168831 -0.266496 0.726438 0.144679 -0.671830 0.860671 -0.048074 -0.506886 0.963639 0.019551 -0.266493 0.684252 0.283614 -0.671835 0.853512 0.120757 -0.506887 0.941308 0.207172 -0.266493 0.615775 0.411660 -0.671831 0.813554 0.284950 -0.506887 0.882804 0.386832 -0.266493 0.523633 0.523888 -0.671826 0.742331 0.438189 -0.506888 0.790374 0.551626 -0.266493 0.411368 0.615969 -0.671832 0.642576 0.574603 -0.506881 0.667570 0.695220 -0.266494 0.283294 0.684388 -0.671832 0.518131 0.688919 -0.506883 0.519107 0.812102 -0.266492 0.144335 0.726501 -0.671836 0.373778 0.776761 -0.506886 0.350697 0.897772 -0.266491 -0.000170 0.740698 -0.671838 0.215057 0.834756 -0.506885 0.168820 0.948937 -0.266492 -0.144676 0.726436 -0.671833 0.048076 0.860670 -0.506888 -0.019551 0.963639 -0.266493 -0.283618 0.684253 -0.671832 -0.120769 0.853515 -0.506880 -0.207176 0.941308 -0.266492 -0.411655 0.615774 -0.671835 -0.284952 0.813554 -0.506885 -0.386832 0.882803 -0.266494 -0.523876 0.523633 -0.671835 -0.438185 0.742332 -0.506890 -0.551618 0.790378 -0.266496 -0.615969 0.411368 -0.671832 -0.574598 0.642578 -0.506884 -0.695217 0.667573 -0.266494 -0.684387 0.283294 -0.671833 -0.688915 0.518134 -0.506886 -0.812100 0.519110 -0.266493 -0.726500 0.144337 -0.671837 -0.776761 0.373778 -0.506886 -0.897767 0.350707 -0.266494 
						-0.740703 -0.000175 -0.671832 -0.834755 0.215059 -0.506886 -0.948937 0.168821 -0.266493 -0.726436 -0.144677 -0.671833 -0.860672 0.048073 -0.506885 -0.963638 -0.019550 -0.266493 -0.684252 -0.283615 -0.671834 -0.853512 -0.120756 -0.506888 -0.941308 -0.207172 -0.266493 -0.615774 -0.411653 -0.671837 -0.813554 -0.284950 -0.506886 -0.882806 -0.386826 -0.266495 -0.523632 -0.523880 -0.671832 -0.742329 -0.438195 -0.506885 -0.790373 -0.551627 -0.266493 -0.411367 -0.615973 -0.671829 -0.642579 -0.574594 -0.506886 -0.667567 -0.695224 -0.266492 -0.283295 -0.684386 -0.671833 -0.518135 -0.688914 -0.506886 -0.519115 -0.812097 -0.266494 -0.144331 -0.726509 -0.671829 -0.373781 -0.776758 -0.506888 -0.350706 -0.897767 -0.266494 0.000176 -0.740704 -0.671831 -0.215058 -0.834755 -0.506886 -0.168821 -0.948937 -0.266493 0.144675 -0.726435 -0.671834 -0.048074 -0.860671 -0.506887 0.019550 -0.963639 -0.266493 0.283614 -0.684251 -0.671836 0.120758 -0.853512 -0.506886 0.207171 -0.941308 -0.266493 0.411654 -0.615774 -0.671836 0.284945 -0.813554 -0.506889 0.386832 -0.882803 -0.266494 0.523880 -0.523633 -0.671832 0.438189 -0.742331 -0.506888 0.551628 -0.790372 -0.266493 0.615968 -0.411368 -0.671833 0.574592 -0.642580 -0.506887 0.657559 -0.699710 -0.279324 0.668968 -0.288800 -0.684892 0.660223 -0.536881 -0.525227 0.710135 -0.000000 0.704066 
					</float_array>
					<technique_common>
						<accessor count="429" offset="0" source="#meshId0-tangents-array" stride="3">
							<param name="X" type="float" />
							<param name="Y" type="float" />
							<param name="Z" type="float" />
						</accessor>
					</technique_common>
				</source>
				<source id="meshId0-bitangents" name="meshId0-bitangents">
					<float_array id="meshId0-bitangents-array" count="1287"> 
						0.204626 0.675965 -0.707954 0.269434 0.650471 -0.710135 0.137356 0.690536 -0.710136 0.068820 0.702898 -0.707954 -0.447730 -0.546202 -0.707956 -0.497849 -0.497849 -0.710136 -0.391157 -0.585409 -0.710136 -0.332567 -0.623053 -0.707957 -0.000000 0.704063 -0.710138 -0.069630 0.702817 -0.707955 -0.269434 -0.650470 -0.710136 -0.204626 -0.675965 -0.707955 -0.137356 0.690536 -0.710136 -0.205405 0.675724 -0.707959 -0.137356 -0.690536 -0.710137 -0.068819 -0.702894 -0.707958 -0.269434 0.650473 -0.710134 -0.333284 0.622663 -0.707964 -0.000000 -0.704064 -0.710137 0.069631 -0.702813 -0.707959 -0.391156 0.585407 -0.710138 -0.448359 0.545686 -0.707955 0.137356 -0.690537 -0.710136 0.205406 -0.675725 -0.707957 -0.497849 0.497849 -0.710135 -0.546203 0.447731 -0.707954 0.269433 -0.650470 -0.710137 0.333286 -0.622669 -0.707958 -0.585409 0.391158 -0.710135 -0.623054 0.332567 -0.707957 0.391157 -0.585408 -0.710137 0.448359 -0.545686 -0.707955 -0.650472 0.269434 -0.710135 -0.675960 0.204622 -0.707960 0.497849 -0.497848 -0.710136 0.546202 -0.447730 -0.707956 -0.690535 0.137356 -0.710137 -0.702897 0.068820 -0.707955 0.675732 0.205407 -0.707950 0.690536 0.137356 -0.710136 0.650470 0.269434 -0.710137 0.622676 0.333289 -0.707950 0.585408 -0.391157 -0.710137 0.623059 -0.332571 -0.707951 -0.704065 0.000000 -0.710136 -0.702818 -0.069630 -0.707954 0.650472 -0.269434 -0.710135 0.675966 -0.204625 -0.707954 -0.690535 -0.137356 -0.710136 -0.675727 -0.205406 -0.707956 0.545687 0.448361 -0.707953 0.585408 0.391157 -0.710137 0.497848 0.497848 -0.710137 0.447739 0.546209 -0.707945 0.690537 -0.137356 -0.710135 0.702895 -0.068819 -0.707957 -0.650471 -0.269434 -0.710136 -0.622667 -0.333287 -0.707959 0.391158 0.585409 -0.710136 0.332567 0.623053 -0.707957 0.724176 0.144048 0.674403 0.738365 -0.000000 0.674401 0.732590 0.067446 0.677320 0.708943 0.209392 0.673465 
						-0.585408 -0.391157 -0.710137 -0.545686 -0.448360 -0.707955 -0.282560 -0.682161 0.674401 -0.410213 -0.613927 0.674403 -0.353234 -0.649358 0.673469 -0.219762 -0.705792 0.673470 0.704065 0.000000 -0.710135 0.706780 0.069244 -0.704036 -0.144048 -0.724179 0.674400 -0.077846 -0.735103 0.673471 0.000000 -0.738365 0.674401 0.067062 -0.736166 0.673470 0.144048 -0.724178 0.674401 0.209391 -0.708935 0.673474 0.282560 -0.682160 0.674401 0.343674 -0.654464 0.673473 0.410213 -0.613927 0.674402 0.464750 -0.574841 0.673473 0.522102 -0.522102 0.674403 0.567966 -0.473128 0.673473 0.682161 0.282560 0.674400 0.654465 0.343674 0.673471 0.613928 -0.410214 0.674401 0.649356 -0.353232 0.673472 0.738366 -0.000000 0.674401 0.724178 -0.144048 0.674401 0.735101 -0.077845 0.673474 0.739719 0.066677 0.669604 0.682161 -0.282560 0.674400 0.705790 -0.219761 0.673473 0.522103 0.522103 0.674402 0.613930 0.410215 0.674399 0.574843 0.464751 0.673470 0.473130 0.567967 0.673469 0.410215 0.613929 0.674400 0.353228 0.649350 0.673479 0.671939 0.740552 -0.008987 0.561612 0.827357 -0.008518 0.579029 0.773492 0.257750 0.682306 0.678966 0.271043 0.282561 0.682163 0.674398 0.219759 0.705786 0.673478 0.144048 0.724177 0.674401 0.077847 0.735106 0.673468 -0.000000 0.738364 0.674403 -0.067062 0.736167 0.673469 -0.144047 0.724175 0.674404 -0.209392 0.708939 0.673469 -0.282560 0.682159 0.674402 -0.343676 0.654470 0.673465 -0.410215 0.613930 0.674399 -0.464751 0.574843 0.673470 -0.522103 0.522103 0.674401 -0.567971 0.473134 0.673464 -0.613927 0.410213 0.674402 -0.649358 0.353234 0.673469 -0.682160 0.282560 0.674402 -0.705791 0.219762 0.673472 -0.724176 0.144047 0.674403 -0.735109 0.077847 0.673465 -0.738364 -0.000000 0.674402 -0.736166 -0.067062 0.673470 -0.724177 -0.144048 0.674402 -0.708938 -0.209392 0.673470 
						-0.682160 -0.282560 0.674401 -0.654466 -0.343675 0.673471 -0.613927 -0.410213 0.674402 -0.574841 -0.464750 0.673473 -0.522102 -0.522102 0.674402 -0.473128 -0.567966 0.673472 -0.000580 0.999565 0.029471 -0.000444 0.999463 0.032749 0.000000 1.000000 0.000000 0.000000 0.999371 -0.035451 0.000241 0.999395 -0.034769 -0.000581 0.999806 -0.019687 -0.000629 0.999686 -0.025060 -0.000241 0.999395 0.034769 0.000445 0.999463 -0.032749 -0.000581 0.999566 -0.029471 -0.000000 0.999371 0.035451 0.000581 0.999566 -0.029471 -0.000445 0.999463 -0.032749 0.000241 0.999395 0.034769 0.000629 0.999686 -0.025060 -0.000241 0.999395 -0.034769 0.000444 0.999463 0.032749 0.000581 0.999806 -0.019687 0.000580 0.999565 0.029471 0.000444 0.999908 -0.013559 0.000629 0.999686 0.025060 0.000241 0.999976 -0.006912 0.000581 0.999806 0.019687 -0.000000 1.000000 0.000000 0.000444 0.999908 0.013559 -0.000240 0.999976 0.006912 0.000240 0.999976 0.006912 -0.000444 0.999908 0.013559 0.000000 1.000000 0.000000 -0.000581 0.999806 0.019687 -0.000240 0.999976 -0.006912 -0.000629 0.999686 0.025060 -0.000444 0.999908 -0.013559 0.000000 1.000000 0.000000 -0.000000 1.000000 0.000000 0.000000 1.000000 0.000000 0.000000 1.000000 0.000000 0.000000 1.000000 0.000000 -0.000000 1.000000 0.000000 -0.000000 1.000000 0.000000 -0.000000 1.000000 0.000000 -0.000000 1.000000 0.000000 -0.000000 1.000000 0.000000 0.000000 1.000000 0.000000 -0.000000 1.000000 0.000000 0.000000 1.000000 0.000000 -0.000000 1.000000 0.000000 0.000000 1.000000 0.000000 0.000001 1.000000 0.000000 0.000000 1.000000 0.000000 -0.000000 1.000000 0.000000 -0.000001 1.000000 0.000000 0.000001 1.000000 0.000000 0.000000 1.000000 0.000000 -0.000001 1.000000 0.000000 0.000001 1.000000 0.000000 0.000000 1.000000 0.000000 -0.000000 1.000000 0.000000 
						-0.000001 1.000000 0.000000 0.000000 1.000000 0.000000 -0.000000 1.000000 0.000000 0.000000 1.000000 0.000000 -0.000000 1.000000 0.000000 0.000000 1.000000 0.000000 0.000000 1.000000 0.000000 0.000000 1.000000 0.000000 0.668497 0.684344 -0.291178 0.565622 0.776691 -0.277169 0.672589 0.519965 -0.526556 0.590617 0.627860 -0.506915 0.683201 0.277397 -0.675491 0.632587 0.402805 -0.661500 0.698831 0.070013 -0.711852 0.389413 0.921024 -0.008518 0.403236 0.872112 -0.277166 0.456771 0.731021 -0.506921 0.541835 0.518475 -0.661512 0.202242 0.979299 -0.008518 0.225339 0.934023 -0.277168 0.305384 0.806085 -0.506919 0.430282 0.614220 -0.661507 0.007300 0.999937 -0.008518 0.038798 0.960038 -0.277166 0.142252 0.850174 -0.506921 0.302190 0.686363 -0.661503 -0.187916 0.982148 -0.008518 -0.149240 0.949161 -0.277166 -0.026331 0.861595 -0.506914 0.162472 0.732124 -0.661512 -0.375910 0.926617 -0.008518 -0.331536 0.901812 -0.277163 -0.193916 0.839901 -0.506916 0.016520 0.749754 -0.661510 -0.549450 0.835483 -0.008518 -0.501104 0.819802 -0.277165 -0.354053 0.785925 -0.506921 -0.130067 0.738571 -0.661510 -0.701892 0.712232 -0.008518 -0.651407 0.706292 -0.277163 -0.500574 0.701755 -0.506918 -0.271657 0.699001 -0.661513 -0.827360 0.561608 -0.008518 -0.776687 0.565629 -0.277166 -0.627858 0.590622 -0.506913 -0.402805 0.632582 -0.661504 -0.921027 0.389404 -0.008518 -0.872109 0.403245 -0.277163 -0.731018 0.456783 -0.506914 -0.518474 0.541830 -0.661517 -0.979298 0.202242 -0.008518 -0.934021 0.225354 -0.277164 -0.806086 0.305384 -0.506918 -0.614219 0.430278 -0.661511 -0.999937 0.007305 -0.008518 -0.960039 0.038804 -0.277165 -0.850175 0.142260 -0.506916 -0.686360 0.302183 -0.661510 -0.982150 -0.187907 -0.008518 -0.949162 -0.149235 -0.277164 -0.861592 -0.026337 -0.506918 -0.732124 0.162472 -0.661511 -0.926617 -0.375911 -0.008518 
						-0.901809 -0.331541 -0.277164 -0.839901 -0.193917 -0.506915 -0.749752 0.016516 -0.661513 -0.835474 -0.549463 -0.008518 -0.819799 -0.501107 -0.277166 -0.785934 -0.354044 -0.506913 -0.738574 -0.130066 -0.661506 -0.712231 -0.701894 -0.008518 -0.706284 -0.651415 -0.277168 -0.701756 -0.500572 -0.506918 -0.699009 -0.271654 -0.661507 -0.561612 -0.827357 -0.008518 -0.565631 -0.776686 -0.277166 -0.590617 -0.627860 -0.506916 -0.632578 -0.402806 -0.661508 -0.389406 -0.921027 -0.008518 -0.403238 -0.872112 -0.277165 -0.456782 -0.731018 -0.506915 -0.541836 -0.518475 -0.661512 -0.202247 -0.979298 -0.008518 -0.225353 -0.934021 -0.277164 -0.305387 -0.806085 -0.506918 -0.430280 -0.614219 -0.661509 -0.007303 -0.999937 -0.008518 -0.038802 -0.960039 -0.277165 -0.142263 -0.850176 -0.506914 -0.302184 -0.686361 -0.661508 0.187920 -0.982148 -0.008518 0.149234 -0.949163 -0.277163 0.026330 -0.861595 -0.506912 -0.162470 -0.732122 -0.661514 0.375912 -0.926616 -0.008518 0.331549 -0.901806 -0.277167 0.193916 -0.839901 -0.506915 -0.016522 -0.749757 -0.661507 0.549463 -0.835475 -0.008518 0.501105 -0.819801 -0.277165 0.354047 -0.785931 -0.506916 0.130067 -0.738571 -0.661510 0.701898 -0.712227 -0.008518 0.651411 -0.706289 -0.277165 0.500570 -0.701760 -0.506914 0.271656 -0.699006 -0.661509 0.827360 -0.561608 -0.008518 0.776687 -0.565629 -0.277166 0.627861 -0.590615 -0.506917 0.402806 -0.632576 -0.661510 0.921025 -0.389411 -0.008518 0.872111 -0.403240 -0.277165 0.731018 -0.456781 -0.506915 0.518475 -0.541840 -0.661509 0.979299 -0.202239 -0.008518 0.934021 -0.225353 -0.277165 0.806086 -0.305389 -0.506915 0.614219 -0.430277 -0.661511 0.999937 -0.007305 -0.008518 0.960038 -0.038795 -0.277167 0.850175 -0.142261 -0.506916 0.686361 -0.302186 -0.661507 0.982149 0.187915 -0.008518 0.949162 0.149236 -0.277165 0.861592 0.026336 -0.506917 0.732127 -0.162476 -0.661507 0.926617 0.375911 -0.008518 
						0.901807 0.331546 -0.277166 0.839897 0.193922 -0.506919 0.749755 -0.016519 -0.661510 0.835474 0.549464 -0.008518 0.819799 0.501107 -0.277166 0.785933 0.354045 -0.506914 0.738573 0.130067 -0.661508 0.750297 0.661052 -0.008022 0.742170 0.616709 -0.262401 0.729803 0.480365 -0.486454 0.714469 0.265786 -0.647218 0.714639 0.271783 0.644535 0.663232 0.403049 0.630615 0.697520 0.512217 0.501098 0.614835 0.624403 0.481766 0.417001 0.871594 0.257750 0.571862 0.524694 0.630612 0.481213 0.732352 0.481761 0.238950 0.936199 0.257749 0.458504 0.626174 0.630619 0.329094 0.812160 0.481760 0.051706 0.964827 0.257752 0.327539 0.703594 0.630614 0.164327 0.860758 0.481760 -0.137516 0.956375 0.257752 0.183977 0.753972 0.630617 -0.006757 0.876277 0.481761 -0.321454 0.911170 0.257753 0.033344 0.775373 0.630623 -0.177579 0.858122 0.481759 -0.493037 0.830950 0.257753 -0.118561 0.766986 0.630616 -0.341587 0.806982 0.481767 -0.645674 0.718797 0.257753 -0.265914 0.729118 0.630616 -0.492456 0.724838 0.481765 -0.773501 0.579015 0.257754 -0.403048 0.663235 0.630612 -0.624400 0.614842 0.481762 -0.871600 0.416984 0.257755 -0.524693 0.571864 0.630610 -0.732352 0.481213 0.481762 -0.936201 0.238939 0.257752 -0.626175 0.458507 0.630616 -0.812160 0.329097 0.481759 -0.964827 0.051706 0.257752 -0.703593 0.327535 0.630617 -0.860756 0.164315 0.481767 -0.956374 -0.137520 0.257753 -0.753975 0.183981 0.630614 -0.876276 -0.006759 0.481762 -0.911170 -0.321454 0.257753 -0.775381 0.033352 0.630613 -0.858124 -0.177575 0.481757 -0.830955 -0.493030 0.257750 -0.766986 -0.118561 0.630615 -0.806985 -0.341583 0.481764 -0.718799 -0.645671 0.257751 -0.729119 -0.265913 0.630615 -0.724842 -0.492452 0.481762 -0.579018 -0.773499 0.257753 -0.663237 -0.403047 0.630610 -0.614842 -0.624400 0.481762 -0.416995 -0.871596 0.257752 
						-0.571857 -0.524694 0.630616 -0.481215 -0.732352 0.481760 -0.238940 -0.936201 0.257752 -0.458506 -0.626175 0.630616 -0.329092 -0.812161 0.481761 -0.051707 -0.964827 0.257752 -0.327538 -0.703594 0.630614 -0.164328 -0.860758 0.481759 0.137516 -0.956375 0.257752 -0.183982 -0.753976 0.630611 0.006757 -0.876277 0.481761 0.321448 -0.911173 0.257751 -0.033349 -0.775378 0.630616 0.177583 -0.858119 0.481763 0.493039 -0.830949 0.257753 0.118563 -0.766983 0.630619 0.341580 -0.806987 0.481762 0.645677 -0.718793 0.257754 0.265914 -0.729119 0.630614 0.492452 -0.724843 0.481761 0.773496 -0.579023 0.257752 0.403049 -0.663227 0.630619 0.624398 -0.614846 0.481759 0.871596 -0.416994 0.257752 0.524694 -0.571856 0.630617 0.732352 -0.481215 0.481761 0.936200 -0.238940 0.257752 0.626176 -0.458508 0.630615 0.812160 -0.329094 0.481760 0.964827 -0.051707 0.257752 0.703595 -0.327539 0.630613 0.860758 -0.164326 0.481760 0.956375 0.137515 0.257752 0.753975 -0.183981 0.630613 0.876279 0.006752 0.481758 0.911170 0.321453 0.257753 0.775379 -0.033349 0.630616 0.858122 0.177578 0.481759 0.830948 0.493039 0.257754 0.766987 0.118560 0.630615 0.806989 0.341578 0.481760 0.753403 0.610697 0.243790 0.743291 0.259922 0.616408 0.751069 0.471943 0.461698 0.704066 0.000000 -0.710135 
					</float_array>
					<technique_common>
						<accessor count="429" offset="0" source="#meshId0-bitangents-array" stride="3">
							<param name="X" type="float" />
							<param name="Y" type="float" />
							<param name="Z" type="float" />
						</accessor>
					</technique_common>
				</source>
				<source id="meshId0-tex0" name="meshId0-tex0">
					<float_array id="meshId0-tex0-array" count="858"> 
						0.784699 0.793808 0.760298 0.818209 0.731442 0.789354 0.755844 0.764952 0.380724 0.389832 0.356322 0.414234 0.327467 0.385379 0.351869 0.360977 0.702587 0.760499 0.726989 0.736097 0.298612 0.356523 0.323013 0.332122 0.673731 0.731643 0.698133 0.707242 0.269756 0.327668 0.294158 0.303266 0.644876 0.702788 0.669278 0.678386 0.240901 0.298813 0.265303 0.274411 0.616021 0.673933 0.640422 0.649531 0.212046 0.269957 0.236447 0.245556 0.587165 0.645077 0.611567 0.620675 0.183190 0.241102 0.207592 0.216700 0.558310 0.616222 0.582712 0.591820 0.154335 0.212247 0.178737 0.187845 0.529455 0.587366 0.553856 0.562965 0.125480 0.183391 0.149881 0.158990 0.500599 0.558511 0.525001 0.534109 0.928976 0.938085 0.904575 0.962486 0.875719 0.933631 0.900121 0.909229 0.096624 0.154536 0.121026 0.130134 0.471744 0.529656 0.496146 0.505254 0.067769 0.125680 0.092170 0.101279 0.442889 0.500800 0.467290 0.476398 0.871265 0.880374 0.846864 0.904776 0.818008 0.875920 0.842410 0.851518 0.038913 0.096825 0.063315 0.072423 0.414033 0.471945 0.438435 0.447543 0.789153 0.847065 0.813555 0.822663 0.964012 0.903049 0.992867 0.931905 0.979766 0.945005 0.950911 0.916150 
						0.385178 0.443090 0.409580 0.418688 0.358049 0.297086 0.386904 0.325942 0.373803 0.339042 0.344948 0.310187 0.010058 0.067970 0.034460 0.043568 0.329193 0.268231 0.316093 0.281332 0.300338 0.239376 0.287237 0.252476 0.271482 0.210520 0.258382 0.223621 0.242627 0.181665 0.229527 0.194765 0.213772 0.152810 0.200671 0.165910 0.184916 0.123954 0.171816 0.137055 0.935156 0.874194 0.922055 0.887295 0.156061 0.095099 0.142961 0.108199 0.069495 0.008533 0.098350 0.037388 0.085250 0.050489 0.056394 0.021633 0.127206 0.066243 0.114105 0.079344 0.877445 0.816483 0.906301 0.845339 0.893200 0.858439 0.864345 0.829584 0.848590 0.787628 0.835489 0.800728 0.968799 0.955973 0.939944 0.927117 0.942692 0.924369 0.971547 0.953225 0.819735 0.758773 0.806634 0.771873 0.790879 0.729917 0.777779 0.743018 0.762024 0.701062 0.748923 0.714162 0.733168 0.672206 0.720068 0.685307 0.704313 0.643351 0.691213 0.656452 0.675458 0.614496 0.662357 0.627596 0.646602 0.585640 0.633502 0.598741 0.617747 0.556785 0.604646 0.569885 0.588892 0.527930 0.575791 0.541030 0.560036 0.499074 0.546936 0.512175 0.531181 0.470219 0.518080 0.483319 0.502325 0.441363 0.489225 0.454464 
						0.473470 0.412508 0.460370 0.425608 0.444615 0.383653 0.431514 0.396753 0.415759 0.354797 0.402659 0.367898 0.129559 0.509496 0.175668 0.484850 0.277731 0.731251 0.277731 0.997955 0.225700 0.992830 0.499487 0.879424 0.466319 0.919839 0.225700 0.469673 0.175668 0.977653 0.425904 0.953007 0.277731 0.464548 0.129559 0.953007 0.379794 0.977653 0.329763 0.469673 0.089144 0.919839 0.329763 0.992830 0.379794 0.484850 0.055976 0.879424 0.425904 0.509496 0.031330 0.833314 0.466319 0.542664 0.016153 0.783283 0.499487 0.583079 0.011028 0.731251 0.524133 0.629189 0.016153 0.679220 0.539310 0.679220 0.031330 0.629189 0.544434 0.731251 0.055976 0.583079 0.539310 0.783283 0.089144 0.542664 0.524133 0.833314 0.462414 0.273496 0.467521 0.221649 0.728175 0.273496 0.973706 0.171794 0.988829 0.221649 0.482644 0.171794 0.993936 0.273496 0.507203 0.125847 0.988829 0.325343 0.540254 0.085575 0.973706 0.375198 0.580526 0.052524 0.949147 0.421145 0.626473 0.027965 0.728175 0.539257 0.676328 0.534150 0.916096 0.461417 0.676328 0.012842 0.626473 0.519027 0.875824 0.494468 0.728175 0.007736 0.580526 0.494468 0.829877 0.519027 0.780022 0.012842 0.540254 0.461417 
						0.780022 0.534150 0.829877 0.027965 0.507203 0.421145 0.875824 0.052524 0.482644 0.375198 0.916096 0.085575 0.467521 0.325343 0.949147 0.125847 0.966051 0.958721 0.937196 0.929865 0.963307 0.961465 0.934451 0.932610 0.960567 0.964204 0.931712 0.935349 0.957832 0.966940 0.911088 0.898262 0.908340 0.901010 0.905596 0.903754 0.902857 0.906494 0.882233 0.869406 0.879485 0.872154 0.876740 0.874899 0.874001 0.877638 0.853377 0.840551 0.850629 0.843299 0.847885 0.846043 0.845146 0.848783 0.824522 0.811696 0.821774 0.814444 0.819030 0.817188 0.816290 0.819927 0.795667 0.782840 0.792919 0.785588 0.790174 0.788333 0.787435 0.791072 0.766811 0.753985 0.764063 0.756733 0.761319 0.759477 0.758580 0.762217 0.737956 0.725130 0.735208 0.727878 0.732464 0.730622 0.729724 0.733361 0.709101 0.696274 0.706353 0.699022 0.703608 0.701767 0.700869 0.704506 0.680245 0.667419 0.677497 0.670167 0.674753 0.672911 0.672014 0.675650 0.651390 0.638564 0.648642 0.641311 0.645898 0.644056 0.643158 0.646795 0.622534 0.609708 0.619786 0.612456 0.617042 0.615200 0.614303 0.617940 0.593679 0.580853 0.590931 0.583601 0.588187 0.586345 0.585448 0.589084 0.564824 0.551997 
						0.562076 0.554745 0.559331 0.557490 0.556592 0.560229 0.535968 0.523142 0.533220 0.525890 0.530476 0.528634 0.527737 0.531374 0.507113 0.494287 0.504365 0.497034 0.501621 0.499779 0.498881 0.502518 0.478258 0.465431 0.475510 0.468179 0.472765 0.470923 0.470026 0.473663 0.449402 0.436576 0.446654 0.439324 0.443910 0.442068 0.441171 0.444807 0.420547 0.407720 0.417799 0.410468 0.415055 0.413213 0.412315 0.415952 0.391691 0.378865 0.388944 0.381613 0.386199 0.384357 0.383460 0.387097 0.362836 0.350010 0.360088 0.352758 0.357344 0.355502 0.354604 0.358241 0.333981 0.321154 0.331233 0.323902 0.328488 0.326647 0.325749 0.329386 0.305125 0.292299 0.302377 0.295047 0.299633 0.297791 0.296894 0.300531 0.276270 0.263444 0.273522 0.266192 0.270778 0.268936 0.268038 0.271675 0.247415 0.234588 0.244667 0.237336 0.241922 0.240081 0.239183 0.242820 0.218559 0.205733 0.215811 0.208481 0.213067 0.211225 0.210328 0.213964 0.189704 0.176878 0.186956 0.179625 0.184212 0.182370 0.181472 0.185109 0.160849 0.148022 0.158101 0.150770 0.155356 0.153515 0.152617 0.156254 0.131993 0.119167 0.129245 0.121915 0.126501 0.124659 0.123762 0.127398 0.103138 0.090311 
						0.100390 0.093059 0.097645 0.095804 0.094906 0.098543 0.074282 0.061456 0.071534 0.064204 0.068790 0.066948 0.066051 0.069688 0.045427 0.032600 0.042679 0.035348 0.039935 0.038093 0.037195 0.040832 0.977031 0.947741 0.948175 0.918886 0.974291 0.950480 0.945436 0.921625 0.913836 0.895514 0.919320 0.890030 0.916580 0.892770 0.884981 0.866658 0.890464 0.861175 0.887725 0.863914 0.856125 0.837803 0.861609 0.832319 0.858870 0.835059 0.827270 0.808948 0.832754 0.803464 0.830014 0.806203 0.798415 0.780092 0.803898 0.774609 0.801159 0.777348 0.769559 0.751237 0.775043 0.745753 0.772304 0.748493 0.740704 0.722382 0.746188 0.716898 0.743448 0.719637 0.711848 0.693526 0.717332 0.688043 0.714593 0.690782 0.682993 0.664671 0.688477 0.659187 0.685738 0.661927 0.654138 0.635816 0.659621 0.630332 0.656882 0.633071 0.625282 0.606960 0.630766 0.601476 0.628027 0.604216 0.596427 0.578105 0.601911 0.572621 0.599171 0.575360 0.567572 0.549249 0.573055 0.543766 0.570316 0.546505 0.538716 0.520394 0.544200 0.514910 0.541461 0.517650 0.509861 0.491539 0.515345 0.486055 0.512605 0.488794 0.481006 0.462683 0.486489 0.457200 0.483750 0.459939 0.452150 0.433828 
						0.457634 0.428344 0.454895 0.431084 0.423295 0.404973 0.428778 0.399489 0.426039 0.402228 0.394439 0.376117 0.399923 0.370633 0.397184 0.373373 0.365584 0.347262 0.371068 0.341778 0.368328 0.344517 0.336729 0.318406 0.342212 0.312923 0.339473 0.315662 0.307873 0.289551 0.313357 0.284067 0.310618 0.286807 0.279018 0.260696 0.284502 0.255212 0.281762 0.257951 0.250163 0.231840 0.255646 0.226357 0.252907 0.229096 0.221307 0.202985 0.226791 0.197501 0.224052 0.200241 0.192452 0.174130 0.197936 0.168646 0.195196 0.171385 0.163597 0.145274 0.169080 0.139791 0.166341 0.142530 0.134741 0.116419 0.140225 0.110935 0.137485 0.113674 0.105886 0.087563 0.111369 0.082080 0.108630 0.084819 0.077030 0.058708 0.082514 0.053224 0.079775 0.055964 0.048175 0.029853 0.053658 0.024369 0.050919 0.027108 0.933430 0.991342 
					</float_array>
					<technique_common>
						<accessor count="429" offset="0" source="#meshId0-tex0-array" stride="2">
							<param name="S" type="float" />
							<param name="T" type="float" />
						</accessor>
					</technique_common>
				</source>
				<vertices id="meshId0-vertices">
					<input semantic="POSITION" source="#meshId0-positions" />
				</vertices>
				<polylist count="704" material="defaultMaterial">
					<input offset="0" semantic="VERTEX" source="#meshId0-vertices" />
					<input offset="0" semantic="NORMAL" source="#meshId0-normals" />
					<input offset="0" semantic="TANGENT" source="#meshId0-tangents" />
					<input offset="0" semantic="BINORMAL" source="#meshId0-bitangents" />
					<input offset="0" semantic="TEXCOORD" source="#meshId0-tex0" set="0" />
					<vcount>
						3 3 3 3 3 3 3 3 3 3 3 3 3 3 3 3 3 3 3 3 3 3 3 3 3 3 3 3 3 3 3 3 3 3 3 3 3 3 3 3 3 3 3 3 3 3 3 3 3 3 3 3 3 3 3 3 3 3 3 3 3 3 3 3 
						3 3 3 3 3 3 3 3 3 3 3 3 3 3 3 3 3 3 3 3 3 3 3 3 3 3 3 3 3 3 3 3 3 3 3 3 3 3 3 3 3 3 3 3 3 3 3 3 3 3 3 3 3 3 3 3 3 3 3 3 3 3 3 3 
						3 3 3 3 3 3 3 3 3 3 3 3 3 3 3 3 3 3 3 3 3 3 3 3 3 3 3 3 3 3 3 3 3 3 3 3 3 3 3 3 3 3 3 3 3 3 3 3 3 3 3 3 3 3 3 3 3 3 3 3 3 3 3 3 
						3 3 3 3 3 3 3 3 3 3 3 3 3 3 3 3 3 3 3 3 3 3 3 3 3 3 3 3 3 3 3 3 3 3 3 3 3 3 3 3 3 3 3 3 3 3 3 3 3 3 3 3 3 3 3 3 3 3 3 3 3 3 3 3 
						3 3 3 3 3 3 3 3 3 3 3 3 3 3 3 3 3 3 3 3 3 3 3 3 3 3 3 3 3 3 3 3 3 3 3 3 3 3 3 3 3 3 3 3 3 3 3 3 3 3 3 3 3 3 3 3 3 3 3 3 3 3 3 3 
						3 3 3 3 3 3 3 3 3 3 3 3 3 3 3 3 3 3 3 3 3 3 3 3 3 3 3 3 3 3 3 3 3 3 3 3 3 3 3 3 3 3 3 3 3 3 3 3 3 3 3 3 3 3 3 3 3 3 3 3 3 3 3 3 
						3 3 3 3 3 3 3 3 3 3 3 3 3 3 3 3 3 3 3 3 3 3 3 3 3 3 3 3 3 3 3 3 3 3 3 3 3 3 3 3 3 3 3 3 3 3 3 3 3 3 3 3 3 3 3 3 3 3 3 3 3 3 3 3 
						3 3 3 3 3 3 3 3 3 3 3 3 3 3 3 3 3 3 3 3 3 3 3 3 3 3 3 3 3 3 3 3 3 3 3 3 3 3 3 3 3 3 3 3 3 3 3 3 3 3 3 3 3 3 3 3 3 3 3 3 3 3 3 3 
						3 3 3 3 3 3 3 3 3 3 3 3 3 3 3 3 3 3 3 3 3 3 3 3 3 3 3 3 3 3 3 3 3 3 3 3 3 3 3 3 3 3 3 3 3 3 3 3 3 3 3 3 3 3 3 3 3 3 3 3 3 3 3 3 
						3 3 3 3 3 3 3 3 3 3 3 3 3 3 3 3 3 3 3 3 3 3 3 3 3 3 3 3 3 3 3 3 3 3 3 3 3 3 3 3 3 3 3 3 3 3 3 3 3 3 3 3 3 3 3 3 3 3 3 3 3 3 3 3 
						3 3 3 3 3 3 3 3 3 3 3 3 3 3 3 3 3 3 3 3 3 3 3 3 3 3 3 3 3 3 3 3 3 3 3 3 3 3 3 3 3 3 3 3 3 3 3 3 3 3 3 3 3 3 3 3 3 3 3 3 3 3 3 3 
					</vcount>
					<p>
						3 0 1 1 2 3 7 4 5 5 6 7 9 3 2 2 8 9 11 7 6 6 10 11 13 9 8 8 12 13 15 11 10 10 14 15 17 13 12 12 16 17 19 15 14 14 18 19 21 17 16 16 20 21 23 19 18 18 22 23 25 21 20 20 24 25 27 23 22 22 26 27 29 25 24 24 28 29 31 27 26 26 30 31 33 29 28 28 32 33 35 31 30 30 34 35 37 33 32 32 36 37 41 38 39 39 40 41 43 35 34 34 42 43 45 37 36 36 44 45 47 43 42 42 46 47 49 45 44 44 48 49 53 50 51 51 52 53 55 47 46 46 54 55 57 49 48 48 56 57 59 53 52 52 58 59 63 60 61 61 62 63 65 57 56 56 64 65 0 59 58 58 1 0 50 41 40 40 51 50 4 65 64 64 5 4 69 66 67 67 68 69 
						71 55 54 54 70 71 73 72 66 66 69 73 75 74 72 72 73 75 77 76 74 74 75 77 79 78 76 76 77 79 81 80 78 78 79 81 83 82 80 80 81 83 85 84 60 60 63 85 87 86 82 82 83 87 91 88 89 89 90 91 93 92 86 86 87 93 97 94 95 95 96 97 90 89 92 92 93 90 99 98 94 94 97 99 103 100 101 101 102 103 105 104 98 98 99 105 96 95 84 84 85 96 107 106 104 104 105 107 109 108 106 106 107 109 111 110 108 108 109 111 113 112 110 110 111 113 115 114 112 112 113 115 117 116 114 114 115 117 119 118 116 116 117 119 121 120 118 118 119 121 123 122 120 120 121 123 125 124 122 122 123 125 127 126 124 124 125 127 129 128 126 126 127 129 131 130 128 128 129 131 133 132 130 130 131 133 68 67 132 132 133 68 
						134 135 136 137 138 136 139 140 136 135 141 136 138 142 136 140 143 136 141 144 136 142 145 136 143 146 136 144 147 136 145 148 136 146 149 136 147 150 136 148 151 136 149 137 136 150 152 136 151 153 136 152 154 136 153 155 136 154 156 136 155 157 136 156 158 136 157 159 136 158 160 136 159 161 136 160 162 136 161 163 136 162 164 136 163 165 136 164 166 136 165 134 136 166 139 136 167 168 169 170 171 169 168 172 169 171 173 169 172 174 169 173 175 169 174 176 169 175 177 169 176 178 169 177 179 169 178 180 169 181 182 169 179 183 169 180 184 169 182 185 169 183 186 169 184 187 169 185 188 169 186 189 169 187 190 169 188 191 169 189 192 169 190 193 169 191 194 169 192 181 169 193 195 169 194 196 169 195 197 169 196 198 169 197 199 169 198 167 169 199 170 169 
						201 101 100 100 200 201 203 201 200 200 202 203 205 203 202 202 204 205 38 205 204 204 206 38 208 207 101 101 201 208 209 208 201 201 203 209 210 209 203 203 205 210 41 210 205 205 38 41 212 211 207 207 208 212 213 212 208 208 209 213 214 213 209 209 210 214 50 214 210 210 41 50 216 215 211 211 212 216 217 216 212 212 213 217 218 217 213 213 214 218 53 218 214 214 50 53 220 219 215 215 216 220 221 220 216 216 217 221 222 221 217 217 218 222 59 222 218 218 53 59 224 223 219 219 220 224 225 224 220 220 221 225 226 225 221 221 222 226 0 226 222 222 59 0 228 227 223 223 224 228 229 228 224 224 225 229 230 229 225 225 226 230 3 230 226 226 0 3 232 231 227 227 228 232 233 232 228 228 229 233 234 233 229 229 230 234 9 234 230 230 3 9 
						236 235 231 231 232 236 237 236 232 232 233 237 238 237 233 233 234 238 13 238 234 234 9 13 240 239 235 235 236 240 241 240 236 236 237 241 242 241 237 237 238 242 17 242 238 238 13 17 244 243 239 239 240 244 245 244 240 240 241 245 246 245 241 241 242 246 21 246 242 242 17 21 248 247 243 243 244 248 249 248 244 244 245 249 250 249 245 245 246 250 25 250 246 246 21 25 252 251 247 247 248 252 253 252 248 248 249 253 254 253 249 249 250 254 29 254 250 250 25 29 256 255 251 251 252 256 257 256 252 252 253 257 258 257 253 253 254 258 33 258 254 254 29 33 260 259 255 255 256 260 261 260 256 256 257 261 262 261 257 257 258 262 37 262 258 258 33 37 264 263 259 259 260 264 265 264 260 260 261 265 266 265 261 261 262 266 45 266 262 262 37 45 
						268 267 263 263 264 268 269 268 264 264 265 269 270 269 265 265 266 270 49 270 266 266 45 49 272 271 267 267 268 272 273 272 268 268 269 273 274 273 269 269 270 274 57 274 270 270 49 57 276 275 271 271 272 276 277 276 272 272 273 277 278 277 273 273 274 278 65 278 274 274 57 65 280 279 275 275 276 280 281 280 276 276 277 281 282 281 277 277 278 282 4 282 278 278 65 4 284 283 279 279 280 284 285 284 280 280 281 285 286 285 281 281 282 286 7 286 282 282 4 7 288 287 283 283 284 288 289 288 284 284 285 289 290 289 285 285 286 290 11 290 286 286 7 11 292 291 287 287 288 292 293 292 288 288 289 293 294 293 289 289 290 294 15 294 290 290 11 15 296 295 291 291 292 296 297 296 292 292 293 297 298 297 293 293 294 298 19 298 294 294 15 19 
						300 299 295 295 296 300 301 300 296 296 297 301 302 301 297 297 298 302 23 302 298 298 19 23 304 303 299 299 300 304 305 304 300 300 301 305 306 305 301 301 302 306 27 306 302 302 23 27 308 307 303 303 304 308 309 308 304 304 305 309 310 309 305 305 306 310 31 310 306 306 27 31 312 311 307 307 308 312 313 312 308 308 309 313 314 313 309 309 310 314 35 314 310 310 31 35 316 315 311 311 312 316 317 316 312 312 313 317 318 317 313 313 314 318 43 318 314 314 35 43 320 319 315 315 316 320 321 320 316 316 317 321 322 321 317 317 318 322 47 322 318 318 43 47 324 323 319 319 320 324 325 324 320 320 321 325 326 325 321 321 322 326 55 326 322 322 47 55 328 327 323 323 324 328 329 328 324 324 325 329 330 329 325 325 326 330 71 330 326 326 55 71 
						332 63 62 62 331 332 334 332 331 331 333 334 102 334 333 333 103 102 102 101 207 207 335 102 336 85 63 63 332 336 337 336 332 332 334 337 335 337 334 334 102 335 335 207 211 211 338 335 339 96 85 85 336 339 340 339 336 336 337 340 338 340 337 337 335 338 338 211 215 215 341 338 342 97 96 96 339 342 343 342 339 339 340 343 341 343 340 340 338 341 341 215 219 219 344 341 345 99 97 97 342 345 346 345 342 342 343 346 344 346 343 343 341 344 344 219 223 223 347 344 348 105 99 99 345 348 349 348 345 345 346 349 347 349 346 346 344 347 347 223 227 227 350 347 351 107 105 105 348 351 352 351 348 348 349 352 350 352 349 349 347 350 350 227 231 231 353 350 354 109 107 107 351 354 355 354 351 351 352 355 353 355 352 352 350 353 353 231 235 235 356 353 
						357 111 109 109 354 357 358 357 354 354 355 358 356 358 355 355 353 356 356 235 239 239 359 356 360 113 111 111 357 360 361 360 357 357 358 361 359 361 358 358 356 359 359 239 243 243 362 359 363 115 113 113 360 363 364 363 360 360 361 364 362 364 361 361 359 362 362 243 247 247 365 362 366 117 115 115 363 366 367 366 363 363 364 367 365 367 364 364 362 365 365 247 251 251 368 365 369 119 117 117 366 369 370 369 366 366 367 370 368 370 367 367 365 368 368 251 255 255 371 368 372 121 119 119 369 372 373 372 369 369 370 373 371 373 370 370 368 371 371 255 259 259 374 371 375 123 121 121 372 375 376 375 372 372 373 376 374 376 373 373 371 374 374 259 263 263 377 374 378 125 123 123 375 378 379 378 375 375 376 379 377 379 376 376 374 377 377 263 267 267 380 377 
						381 127 125 125 378 381 382 381 378 378 379 382 380 382 379 379 377 380 380 267 271 271 383 380 384 129 127 127 381 384 385 384 381 381 382 385 383 385 382 382 380 383 383 271 275 275 386 383 387 131 129 129 384 387 388 387 384 384 385 388 386 388 385 385 383 386 386 275 279 279 389 386 390 133 131 131 387 390 391 390 387 387 388 391 389 391 388 388 386 389 389 279 283 283 392 389 393 68 133 133 390 393 394 393 390 390 391 394 392 394 391 391 389 392 392 283 287 287 395 392 396 69 68 68 393 396 397 396 393 393 394 397 395 397 394 394 392 395 395 287 291 291 398 395 399 73 69 69 396 399 400 399 396 396 397 400 398 400 397 397 395 398 398 291 295 295 401 398 402 75 73 73 399 402 403 402 399 399 400 403 401 403 400 400 398 401 401 295 299 299 404 401 
						405 77 75 75 402 405 406 405 402 402 403 406 404 406 403 403 401 404 404 299 303 303 407 404 408 79 77 77 405 408 409 408 405 405 406 409 407 409 406 406 404 407 407 303 307 307 410 407 411 81 79 79 408 411 412 411 408 408 409 412 410 412 409 409 407 410 410 307 311 311 413 410 414 83 81 81 411 414 415 414 411 411 412 415 413 415 412 412 410 413 413 311 315 315 416 413 417 87 83 83 414 417 418 417 414 414 415 418 416 418 415 415 413 416 416 315 319 319 419 416 420 93 87 87 417 420 421 420 417 417 418 421 419 421 418 418 416 419 419 319 323 323 422 419 423 90 93 93 420 423 424 423 420 420 421 424 422 424 421 421 419 422 422 323 327 327 425 422 426 91 90 90 423 426 427 426 423 423 424 427 425 427 424 424 422 425 38 206 428 428 39 38 
					</p>
				</polylist>
			</mesh>
		</geometry>
	</library_geometries>
	<library_visual_scenes>
		<visual_scene id="RootNode" name="RootNode">
			<node id="Circle" name="Circle">
				<matrix>100.000000 0.000000 0.000000 0.000000 0.000000 100.000000 -0.000004 0.000000 0.000000 0.000004 100.000000 0.000000 0.000000 0.000000 0.000000 1.000000</matrix>
				<instance_geometry url="#meshId0">
					<bind_material>
						<technique_common>
							<instance_material symbol="defaultMaterial" target="#Mirror" />
						</technique_common>
					</bind_material>
				</instance_geometry>
			</node>
		</visual_scene>
	</library_visual_scenes>
	<scene>
		<instance_visual_scene url="#RootNode" />
	</scene>
</COLLADA>
